<svg width="31" height="31" viewBox="0 0 31 31" fill="none" xmlns="http://www.w3.org/2000/svg">
<path opacity="0.4" d="M4.25 8.25C4.25 5.48858 6.48858 3.25 9.25 3.25H18L26.75 12V23.25C26.75 26.0114 24.5114 28.25 21.75 28.25H9.25C6.48858 28.25 4.25 26.0114 4.25 23.25V8.25Z" fill="white"/>
<path d="M26.75 12L18 3.25V7C18 9.76142 20.2386 12 23 12H26.75Z" fill="white"/>
<path fill-rule="evenodd" clip-rule="evenodd" d="M9.5625 14.5C9.5625 13.9822 9.98223 13.5625 10.5 13.5625L15.5 13.5625C16.0178 13.5625 16.4375 13.9822 16.4375 14.5C16.4375 15.0178 16.0178 15.4375 15.5 15.4375L10.5 15.4375C9.98223 15.4375 9.5625 15.0178 9.5625 14.5Z" fill="white"/>
<path fill-rule="evenodd" clip-rule="evenodd" d="M9.5625 20.75C9.5625 20.2322 9.98223 19.8125 10.5 19.8125H20.5C21.0178 19.8125 21.4375 20.2322 21.4375 20.75C21.4375 21.2678 21.0178 21.6875 20.5 21.6875H10.5C9.98223 21.6875 9.5625 21.2678 9.5625 20.75Z" fill="white"/>
</svg>