<svg width="31" height="31" viewBox="0 0 31 31" fill="none" xmlns="http://www.w3.org/2000/svg">
<path opacity="0.4" d="M5.5 24.8644V5.5C5.5 4.11929 6.61929 3 8 3H23C24.3807 3 25.5 4.11929 25.5 5.5L25.5 24.8644C25.5 26.4261 23.7025 27.3033 22.4714 26.3425L17.0381 21.3959C16.1341 20.6903 14.8659 20.6903 13.9619 21.3959L8.52861 26.3425C7.29746 27.3033 5.5 26.4261 5.5 24.8644Z" fill="white"/>
<path d="M8 3H23C24.3807 3 25.5 4.11929 25.5 5.5V9.25H5.5V5.5C5.5 4.11929 6.61929 3 8 3Z" fill="white"/>
</svg>