<svg width="27" height="27" viewBox="0 0 27 27" fill="none" xmlns="http://www.w3.org/2000/svg">
<path opacity="0.3" fill-rule="evenodd" clip-rule="evenodd" d="M7.22093 0C3.23292 0 0 3.23292 0 7.22093V19.7791C0 23.7671 3.23292 27 7.22093 27H19.7791C23.7671 27 27 23.7671 27 19.7791V7.22093C27 3.23292 23.7671 0 19.7791 0H7.22093Z" fill="white"/>
<path fill-rule="evenodd" clip-rule="evenodd" d="M17.3426 7.1216C16.9131 6.69208 16.217 6.69234 15.7878 7.12218L14.076 8.83655L18.1943 12.9548L19.8946 11.2102C20.315 10.7789 20.3106 10.0895 19.8847 9.66369L17.3426 7.1216ZM17.6185 13.5456L13.4932 9.42027L8.12406 14.7975C7.83201 15.09 7.66031 15.4816 7.64294 15.8947L7.52647 18.6637C7.50674 19.1326 7.88128 19.5235 8.35027 19.5236L11.0967 19.5237C11.5412 19.5237 11.9669 19.3441 12.2773 19.0257L17.6185 13.5456Z" fill="white"/>
</svg>