<svg width="25" height="25" viewBox="0 0 25 25" fill="none" xmlns="http://www.w3.org/2000/svg">
<path opacity="0.4" d="M0 5C0 2.23858 2.23858 0 5 0H20C22.7614 0 25 2.23858 25 5V20C25 22.7614 22.7614 25 20 25H5C2.23858 25 0 22.7614 0 20V5Z" fill="white"/>
<path fill-rule="evenodd" clip-rule="evenodd" d="M12.03 6.98007C11.7428 6.54926 11.1608 6.43285 10.73 6.72005L6.97997 9.22005C6.54916 9.50726 6.43275 10.0893 6.71995 10.5201L9.21995 14.2701C9.50716 14.7009 10.0892 14.8174 10.52 14.5301C10.9508 14.2429 11.0673 13.6609 10.78 13.2301L9.33222 11.0583C11.026 11.2844 12.6096 11.8249 13.855 12.6551C15.5139 13.7611 16.5625 15.3638 16.5625 17.5001C16.5625 18.0179 16.9822 18.4376 17.5 18.4376C18.0178 18.4376 18.4375 18.0179 18.4375 17.5001C18.4375 14.6364 16.9861 12.4891 14.895 11.0951C13.5474 10.1966 11.9312 9.60475 10.2369 9.30226L11.77 8.28015C12.2008 7.99294 12.3173 7.41088 12.03 6.98007Z" fill="white"/>
</svg>