<svg width="25" height="26" viewBox="0 0 25 26" fill="none" xmlns="http://www.w3.org/2000/svg">
<path opacity="0.4" d="M0 5.75C0 2.98858 2.23858 0.75 5 0.75H20C22.7614 0.75 25 2.98858 25 5.75V20.75C25 23.5114 22.7614 25.75 20 25.75H5C2.23858 25.75 0 23.5114 0 20.75V5.75Z" fill="white"/>
<path fill-rule="evenodd" clip-rule="evenodd" d="M12.97 7.73007C13.2572 7.29926 13.8392 7.18285 14.27 7.47005L18.02 9.97005C18.4508 10.2573 18.5673 10.8393 18.28 11.2701L15.78 15.0201C15.4928 15.4509 14.9108 15.5674 14.48 15.2801C14.0492 14.9929 13.9327 14.4109 14.22 13.9801L15.6678 11.8083C13.974 12.0344 12.3904 12.5749 11.145 13.4051C9.4861 14.5111 8.4375 16.1138 8.4375 18.2501C8.4375 18.7679 8.01777 19.1876 7.5 19.1876C6.98223 19.1876 6.5625 18.7679 6.5625 18.2501C6.5625 15.3864 8.0139 13.2391 10.105 11.8451C11.4526 10.9466 13.0688 10.3547 14.7631 10.0523L13.23 9.03015C12.7992 8.74294 12.6827 8.16088 12.97 7.73007Z" fill="white"/>
</svg>