<svg width="30" height="31" viewBox="0 0 30 31" fill="none" xmlns="http://www.w3.org/2000/svg">
<path opacity="0.4" d="M2.5 21.75C2.5 24.5114 4.73858 26.75 7.5 26.75H22.5C25.2614 26.75 27.5 24.5114 27.5 21.75V20.25C27.5 19.6977 27.0443 19.2636 26.5115 19.1183C24.92 18.6846 23.75 17.2289 23.75 15.5C23.75 13.7711 24.92 12.3154 26.5115 11.8817C27.0443 11.7364 27.5 11.3023 27.5 10.75V9.25C27.5 6.48858 25.2614 4.25 22.5 4.25H7.5C4.73858 4.25 2.5 6.48858 2.5 9.25V10.75C2.5 11.3023 2.95569 11.7364 3.48854 11.8817C5.07998 12.3154 6.25 13.7711 6.25 15.5C6.25 17.2289 5.07998 18.6846 3.48854 19.1183C2.95569 19.2636 2.5 19.6977 2.5 20.25V21.75Z" fill="white"/>
<path d="M12.5 11.75C12.5 12.4404 11.9404 13 11.25 13C10.5596 13 10 12.4404 10 11.75C10 11.0596 10.5596 10.5 11.25 10.5C11.9404 10.5 12.5 11.0596 12.5 11.75Z" fill="white"/>
<path d="M20 19.25C20 19.9404 19.4404 20.5 18.75 20.5C18.0596 20.5 17.5 19.9404 17.5 19.25C17.5 18.5596 18.0596 18 18.75 18C19.4404 18 20 18.5596 20 19.25Z" fill="white"/>
<path fill-rule="evenodd" clip-rule="evenodd" d="M19.4129 11.0871C19.779 11.4532 19.779 12.0468 19.4129 12.4129L11.9129 19.9129C11.5468 20.279 10.9532 20.279 10.5871 19.9129C10.221 19.5468 10.221 18.9532 10.5871 18.5871L18.0871 11.0871C18.4532 10.721 19.0468 10.721 19.4129 11.0871Z" fill="white"/>
</svg>