<svg width="31" height="31" viewBox="0 0 31 31" fill="none" xmlns="http://www.w3.org/2000/svg">
<path opacity="0.4" d="M12.9019 3.96406C14.5096 3.01198 16.4904 3.01198 18.0981 3.96406L24.1519 7.54915C25.7596 8.50123 26.75 10.2607 26.75 12.1649V19.3351C26.75 21.2393 25.7596 22.9988 24.1519 23.9508L18.0981 27.5359C16.4904 28.488 14.5096 28.488 12.9019 27.5359L6.84808 23.9508C5.24038 22.9988 4.25 21.2393 4.25 19.3351V12.1649C4.25 10.2607 5.24038 8.50123 6.84808 7.54915L12.9019 3.96406Z" fill="white"/>
<path d="M14.25 22C14.25 21.3096 14.8096 20.75 15.5 20.75C16.1904 20.75 16.75 21.3096 16.75 22C16.75 22.6904 16.1904 23.25 15.5 23.25C14.8096 23.25 14.25 22.6904 14.25 22Z" fill="white"/>
<path fill-rule="evenodd" clip-rule="evenodd" d="M15.5 19.1875C14.9822 19.1875 14.5625 18.7678 14.5625 18.25L14.5625 9.5C14.5625 8.98223 14.9822 8.5625 15.5 8.5625C16.0178 8.5625 16.4375 8.98223 16.4375 9.5L16.4375 18.25C16.4375 18.7678 16.0178 19.1875 15.5 19.1875Z" fill="white"/>
</svg>