<svg width="37" height="36" viewBox="0 0 37 36" fill="none" xmlns="http://www.w3.org/2000/svg">
<path opacity="0.4" d="M33.5 18.666C33.5 26.9503 26.7843 33.666 18.5 33.666C10.2157 33.666 3.5 26.9503 3.5 18.666C3.5 10.3817 10.2157 3.66602 18.5 3.66602C26.7843 3.66602 33.5 10.3817 33.5 18.666Z" fill="white"/>
<path fill-rule="evenodd" clip-rule="evenodd" d="M21.9476 23.148C22.387 23.5751 23.0993 23.5751 23.5386 23.148C23.978 22.7208 23.978 22.0283 23.5386 21.6012L20.0916 18.2499L23.5386 14.8986C23.9779 14.4715 23.9779 13.7789 23.5386 13.3518C23.0992 12.9247 22.3869 12.9247 21.9476 13.3518L18.5006 16.7031L15.0533 13.3516C14.614 12.9245 13.9017 12.9245 13.4623 13.3516C13.023 13.7787 13.023 14.4713 13.4623 14.8984L16.9096 18.2499L13.4623 21.6014C13.023 22.0285 13.023 22.721 13.4623 23.1482C13.9017 23.5753 14.614 23.5753 15.0533 23.1482L18.5006 19.7967L21.9476 23.148Z" fill="white"/>
</svg>